<svg xmlns="http://www.w3.org/2000/svg" width="38" height="38" viewBox="0 0 38 38"><defs><style>.a{fill:#0c335a;}</style></defs><g transform="translate(0 -0.011)"><g transform="translate(0 0.012)"><path class="a" d="M36.257,42.718H1.727a1.728,1.728,0,0,0,0,3.457H36.256a1.728,1.728,0,0,0,0-3.457Z" transform="translate(0 -8.175)"/><path class="a" d="M4.4,33.091a1.729,1.729,0,0,0,0,3.458h30.21a1.729,1.729,0,0,0,0-3.458h-.431V17.538h.431a.863.863,0,0,0,0-1.727H4.4a.863.863,0,0,0,0,1.727h.432V33.09H4.4ZM30.721,17.538V33.09H25.543V17.538Zm-8.632,0V33.09H16.911V17.538Zm-13.81,0h5.179V33.09H8.279Z" transform="translate(-0.509 -3.041)"/><path class="a" d="M1.727,11.243H36.273a1.729,1.729,0,0,0,.56-3.364L19.7.163a1.729,1.729,0,0,0-1.416,0L1.019,7.939a1.728,1.728,0,0,0,.708,3.3Z" transform="translate(0 -0.012)"/></g></g></svg>