<svg xmlns="http://www.w3.org/2000/svg" width="47.999" height="38" viewBox="0 0 47.999 38"><defs><style>.a{fill:#146aa8;}.b{fill:#126099;}.c{fill:#4398d1;}.d{fill:#3e8cc7;}.e{fill:#fdb62f;}.f{fill:#fd7b2f;}.g{fill:#de4c3c;}.h{fill:#87ced9;}</style></defs><g transform="translate(0 -49.045)"><path class="a" d="M64.821,76.981l2.814-17.967a3.345,3.345,0,0,0-2.771-3.832h0L26.894,49.088a3.343,3.343,0,0,0-3.831,2.771l-1.349,8.4V76.876Z" transform="translate(-19.678 0)"/><path class="b" d="M107.734,97.779,96.95,96.049C89.707,107.131,78,114.807,69.019,119.485l38.672.094,2.814-17.967a3.345,3.345,0,0,0-2.771-3.832Z" transform="translate(-62.549 -42.597)"/><path class="c" d="M3.344,159.771H41.8a3.344,3.344,0,0,1,3.344,3.344V184.85a3.344,3.344,0,0,1-3.344,3.344H3.344A3.344,3.344,0,0,1,0,184.85V163.115A3.344,3.344,0,0,1,3.344,159.771Z" transform="translate(0 -101.149)"/><path class="d" d="M133.545,159.771h-.669c-7.892,14.01-22.637,23.62-31.639,28.423h32.308a3.344,3.344,0,0,0,3.344-3.344V163.115A3.344,3.344,0,0,0,133.545,159.771Z" transform="translate(-91.746 -101.149)"/><rect class="e" width="8.36" height="6.688" transform="translate(4.18 63.241)"/><g transform="translate(4.18 65.744)"><rect class="f" width="2.508" height="1.672" transform="translate(0 0)"/><rect class="f" width="2.508" height="1.672" transform="translate(5.852 0)"/></g><circle class="e" cx="4.18" cy="4.18" r="4.18" transform="translate(32.603 74.505)"/><circle class="g" cx="4.18" cy="4.18" r="4.18" transform="translate(27.587 74.505)"/><g transform="translate(3.344 62.802)"><rect class="h" width="5.016" height="1.672" transform="translate(0 12.54)"/><rect class="h" width="5.016" height="1.672" transform="translate(8.36 12.54)"/><rect class="h" width="5.016" height="1.672" transform="translate(16.719 12.54)"/><rect class="h" width="21.735" height="1.672" transform="translate(0 17.555)"/><rect class="h" width="1.672" height="3.344" transform="translate(25.915 0)"/><rect class="h" width="1.672" height="3.344" transform="translate(29.259 0)"/><rect class="h" width="1.672" height="3.344" transform="translate(32.603 0)"/><rect class="h" width="1.672" height="3.344" transform="translate(35.947 0)"/></g></g></svg>