<svg xmlns="http://www.w3.org/2000/svg" width="18" height="18" viewBox="0 0 18 18"><defs><style>.a{fill:none;}.b{fill:#212529;}</style></defs><path class="a" d="M0,0H18V18H0Z"/><path class="b" d="M9.5,2c2.038,0,2.292.007,3.092.045a5.525,5.525,0,0,1,1.821.349,3.657,3.657,0,0,1,1.329.865,3.681,3.681,0,0,1,.865,1.329,5.541,5.541,0,0,1,.349,1.821c.035.8.045,1.054.045,3.092s-.007,2.292-.045,3.092a5.545,5.545,0,0,1-.349,1.821,3.829,3.829,0,0,1-2.194,2.194,5.54,5.54,0,0,1-1.821.349c-.8.035-1.054.045-3.092.045s-2.292-.007-3.092-.045a5.545,5.545,0,0,1-1.821-.349,3.829,3.829,0,0,1-2.194-2.194,5.521,5.521,0,0,1-.349-1.821C2.01,11.792,2,11.538,2,9.5s.007-2.292.045-3.092a5.521,5.521,0,0,1,.349-1.821A3.829,3.829,0,0,1,4.587,2.394a5.521,5.521,0,0,1,1.821-.349C7.208,2.01,7.462,2,9.5,2Zm0,3.75A3.75,3.75,0,1,0,13.25,9.5,3.75,3.75,0,0,0,9.5,5.75Zm4.875-.188a.938.938,0,1,0-.938.938A.938.938,0,0,0,14.375,5.562ZM9.5,7.25A2.25,2.25,0,1,1,7.25,9.5,2.25,2.25,0,0,1,9.5,7.25Z" transform="translate(-0.5 -0.5)"/></svg>