<svg xmlns="http://www.w3.org/2000/svg" width="38" height="38" viewBox="0 0 38 38"><defs><style>.a{fill:#0c335a;}</style></defs><g transform="translate(0 0)"><path class="a" d="M92.979,322.051l-1.613-.967a3.173,3.173,0,0,0-1.627-.45H87.311a5.728,5.728,0,0,0-1.472.19l-7.314,1.964a2.551,2.551,0,0,0-1.722,1.6L70.37,320.9a2.52,2.52,0,0,0-1.722-.285,2.377,2.377,0,0,0-.64.21,2.49,2.49,0,0,0-1.088,1.014,2.539,2.539,0,0,0-.335,1.261,2.511,2.511,0,0,0,1.252,2.192l11.53,6.9a3.165,3.165,0,0,0,1.667.475h8.923a3.157,3.157,0,0,0,1.164-.222l1.858-.734v.956h6.333V320H92.979Zm-2.324,9.221a1.9,1.9,0,0,1-.7.133H81.034a1.9,1.9,0,0,1-1.009-.29L68.479,324.2a1.26,1.26,0,0,1-.63-1.1,1.287,1.287,0,0,1,.17-.634,1.245,1.245,0,0,1,.544-.5,1.192,1.192,0,0,1,.317-.1,1.331,1.331,0,0,1,.243-.023,1.241,1.241,0,0,1,.621.165l6.976,3.771c.008.039.008.077.018.115a2.54,2.54,0,0,0,2.448,1.875,6.22,6.22,0,0,0,1.044-.186l6.58-1.761-.327-1.224-6.558,1.754c-.289.066-.661.143-.738.149a1.267,1.267,0,0,1-1.224-.933,1.156,1.156,0,0,1-.037-.234s0-.153,0-.207a1.28,1.28,0,0,1,.932-1.117l7.311-1.957a4.423,4.423,0,0,1,1.144-.151h2.427a1.9,1.9,0,0,1,.976.27l2.264,1.356v6.825Zm3.59-10h3.8V331.4h-3.8Zm0,0" transform="translate(-61.312 -294.672)"/><path class="a" d="M26.121,5.068l-3.4-3.4A5.659,5.659,0,0,0,18.693,0H10.731A3.187,3.187,0,0,0,9.315.334L7.9,1.044a1.877,1.877,0,0,1-.919.2l-.644-.023V0H0V13.938H6.333v-1.9H7.41l.383.253A6.981,6.981,0,0,0,11.4,13.452v8.089H38V5.068Zm-21.055,7.6h-3.8V1.267h3.8Zm3.428-1.434-.7-.466H6.333V2.489l.6.021a3.179,3.179,0,0,0,1.531-.332l1.418-.71a1.9,1.9,0,0,1,.851-.2h7.962a4.4,4.4,0,0,1,3.135,1.3l2.5,2.5H19.1L17.567,3.531l-.9.9L21.145,8.9a1.27,1.27,0,1,1-1.792,1.8L15.616,6.965l-.443.38a3.356,3.356,0,0,1-4.269.063l-.367-.3-.8.984.371.3a4.616,4.616,0,0,0,1.29.727v3.061a5.71,5.71,0,0,1-2.906-.948Zm9.009-.593.956.956a2.551,2.551,0,0,0,3.578,0,3.205,3.205,0,1,0,.36-.459A2.492,2.492,0,0,0,22.6,8.87h8.481A3.811,3.811,0,0,0,34.2,11.985v2.639a3.811,3.811,0,0,0-3.114,3.115H18.314A3.811,3.811,0,0,0,15.2,14.624V11.985a3.78,3.78,0,0,0,2.3-1.341ZM22.8,13.3a1.9,1.9,0,1,1,1.9,1.9A1.9,1.9,0,0,1,22.8,13.3Zm13.933,6.969H12.667V9.388a4.6,4.6,0,0,0,2.85-.729L16.6,9.741a2.527,2.527,0,0,1-2.03,1.03h-.633v5.069h.633A2.534,2.534,0,0,1,17.1,18.373v.634H32.3v-.634a2.534,2.534,0,0,1,2.533-2.534h.633V10.77h-.633A2.534,2.534,0,0,1,32.3,8.236V7.6H21.637L20.37,6.335H36.733Zm0,0" transform="translate(0 0)"/></g></svg>