<svg xmlns="http://www.w3.org/2000/svg" width="32" height="32" viewBox="0 0 32 32"><defs><style>.a{fill:none;}.b{fill:#212529;}</style></defs><g transform="translate(-1741 -45)"><path class="a" d="M0,0H32V32H0Z" transform="translate(1741 45)"/><path class="b" d="M4.772,21.333V4.762H2V2H6.158A1.384,1.384,0,0,1,7.544,3.381V19.952h17.24L27.557,8.9H10.317V6.143H29.334a1.382,1.382,0,0,1,1.345,1.717l-3.465,13.81a1.385,1.385,0,0,1-1.345,1.045H6.158A1.384,1.384,0,0,1,4.772,21.333ZM7.544,31a2.762,2.762,0,1,1,2.772-2.762A2.767,2.767,0,0,1,7.544,31Zm16.633,0a2.762,2.762,0,1,1,2.772-2.762A2.767,2.767,0,0,1,24.178,31Z" transform="translate(1741 45)"/></g></svg>