<svg xmlns="http://www.w3.org/2000/svg" width="18.001" height="18.001" viewBox="0 0 18.001 18.001"><defs><style>.a{fill:none;}.b{fill:#212529;}</style></defs><path class="a" d="M0,0H18V18H0Z"/><path class="b" d="M17.067,5.164a6.288,6.288,0,0,1-1.8.494,3.147,3.147,0,0,0,1.38-1.736,6.269,6.269,0,0,1-1.992.761A3.137,3.137,0,0,0,9.309,7.544,8.906,8.906,0,0,1,2.843,4.266a3.141,3.141,0,0,0,.971,4.188,3.126,3.126,0,0,1-1.421-.392V8.1a3.139,3.139,0,0,0,2.516,3.076,3.158,3.158,0,0,1-1.417.054,3.139,3.139,0,0,0,2.93,2.179,6.3,6.3,0,0,1-4.643,1.3,8.873,8.873,0,0,0,4.808,1.41,8.865,8.865,0,0,0,8.925-8.925c0-.135,0-.272-.01-.405a6.372,6.372,0,0,0,1.565-1.624Z" transform="translate(-0.445 -0.922)"/></svg>