<svg xmlns="http://www.w3.org/2000/svg" width="18" height="18" viewBox="0 0 18 18"><defs><style>.a{fill:none;}.b{fill:#212529;}</style></defs><path class="a" d="M0,0H18V18H0Z"/><path class="b" d="M2,17l1.014-3.726a7.5,7.5,0,1,1,2.711,2.71ZM6.793,5.981a.721.721,0,0,0-.278.075.97.97,0,0,0-.22.171,1.672,1.672,0,0,0-.2.23,2.047,2.047,0,0,0-.424,1.258,2.624,2.624,0,0,0,.247,1.06A7.165,7.165,0,0,0,7.4,10.831c.16.16.317.32.486.47a7.086,7.086,0,0,0,2.88,1.535l.427.065a4.078,4.078,0,0,0,.417-.01,1.493,1.493,0,0,0,.625-.173c.125-.066.183-.1.287-.165,0,0,.032-.021.094-.068a1.721,1.721,0,0,0,.248-.216.861.861,0,0,0,.157-.227,2.089,2.089,0,0,0,.141-.55,1.471,1.471,0,0,0,.01-.28.256.256,0,0,0-.142-.2l-.437-.2s-.653-.284-1.051-.466a.374.374,0,0,0-.133-.031.362.362,0,0,0-.283.1v0a9.034,9.034,0,0,0-.6.7.263.263,0,0,1-.276.1,1.062,1.062,0,0,1-.143-.049c-.093-.039-.125-.054-.189-.082l0,0a4.507,4.507,0,0,1-1.177-.75c-.095-.082-.182-.172-.272-.259A4.722,4.722,0,0,1,7.7,9.12l-.044-.071a.692.692,0,0,1-.077-.154.24.24,0,0,1,.046-.2s.182-.2.267-.308a3.285,3.285,0,0,0,.2-.28.454.454,0,0,0,.07-.4q-.315-.77-.651-1.531a.38.38,0,0,0-.295-.187c-.041,0-.081-.009-.122-.012a2.539,2.539,0,0,0-.3,0Z" transform="translate(-0.5 -0.5)"/></svg>