<svg xmlns="http://www.w3.org/2000/svg" width="24" height="24" viewBox="0 0 24 24"><defs><style>.a{fill:none;}.b{fill:#fff1df;}</style></defs><path class="a" d="M0,0H24V24H0Z"/><path class="b" d="M21.543,6.5A31.058,31.058,0,0,1,22,12a31.058,31.058,0,0,1-.457,5.5A2.811,2.811,0,0,1,19.6,19.524C17.9,20,12,20,12,20s-5.893,0-7.605-.476A2.811,2.811,0,0,1,2.457,17.5,31.058,31.058,0,0,1,2,12a31.058,31.058,0,0,1,.457-5.5A2.811,2.811,0,0,1,4.395,4.476C6.107,4,12,4,12,4s5.9,0,7.6.476A2.811,2.811,0,0,1,21.543,6.5ZM10,15.5,16,12,10,8.5Z"/></svg>